<?xml version="1.0" encoding="iso-8859-1"?>
<!-- Generator: Adobe Illustrator 18.0.0, SVG Export Plug-In . SVG Version: 6.00 Build 0)  -->
<!DOCTYPE svg PUBLIC "-//W3C//DTD SVG 1.1//EN" "http://www.w3.org/Graphics/SVG/1.1/DTD/svg11.dtd">
<svg version="1.1" id="Capa_1" xmlns="http://www.w3.org/2000/svg" xmlns:xlink="http://www.w3.org/1999/xlink" x="0px" y="0px"
	 viewBox="0 0 58.007 58.007" style="enable-background:new 0 0 58.007 58.007;" xml:space="preserve">
<g>
	<path d="M23.957,48h1.522v7.007c0,1.654,1.346,3,3,3h1c1.654,0,3-1.346,3-3V48h6.154c2.686,0,4.87-2.209,4.87-4.925V28.453
		L23.957,48z"/>
	<path d="M41.131,6.267L14.503,32.895v9.672l28.973-28.973C43.373,10.891,42.533,8.376,41.131,6.267z"/>
	<path d="M14.894,45.004c0.744,1.76,2.471,2.996,4.48,2.996h1.755l22.375-22.375v-9.23L14.894,45.004z"/>
	<path d="M34.106,0.792L14.503,20.395v9.672L39.889,4.681C38.329,2.932,36.349,1.581,34.106,0.792z"/>
	<path d="M29.543,0h-1.08c-7.697,0-13.96,6.345-13.96,14.143v3.424L31.859,0.211C31.104,0.083,30.334,0,29.543,0z"/>
</g>
<g>
</g>
<g>
</g>
<g>
</g>
<g>
</g>
<g>
</g>
<g>
</g>
<g>
</g>
<g>
</g>
<g>
</g>
<g>
</g>
<g>
</g>
<g>
</g>
<g>
</g>
<g>
</g>
<g>
</g>
</svg>
